<svg width="27" height="26" viewBox="0 0 27 26" fill="none" xmlns="http://www.w3.org/2000/svg">
<path d="M5.66497 4.83466C4.59059 5.904 3.74344 7.1764 3.17369 8.57647C2.60394 9.97654 2.32317 11.4758 2.34803 12.9855C2.37288 14.4952 2.70284 15.9846 3.31837 17.3654C3.93391 18.7463 4.82248 19.9906 5.93148 21.0245C7.04048 22.0585 8.34734 22.8611 9.77466 23.3849C11.202 23.9087 12.7207 24.1429 14.2409 24.0738C15.7612 24.0046 17.2519 23.6335 18.625 22.9823C19.998 22.3312 21.2254 21.4133 22.2343 20.283C20.0175 20.8239 17.6975 20.7882 15.4986 20.1794C13.2997 19.5705 11.2963 18.4091 9.68212 16.8074C8.06795 15.2057 6.89758 13.2179 6.28418 11.0362C5.67078 8.85445 5.63509 6.5526 6.18057 4.35319C6.00379 4.50842 5.83184 4.66899 5.66497 4.83466ZM11.0276 15.474C13.0739 17.5043 15.8232 18.6843 18.7157 18.7738C21.6083 18.8632 24.4264 17.8553 26.5961 15.9554C26.034 18.2216 24.8748 20.2989 23.2372 21.9743C21.5996 23.6497 19.5426 24.8631 17.2769 25.4903C15.0111 26.1174 12.618 26.1356 10.3428 25.5431C8.06759 24.9506 5.99202 23.7687 4.32871 22.1184C2.66539 20.4682 1.47414 18.4089 0.876972 16.1515C0.279805 13.8941 0.298193 11.5198 0.930253 9.27181C1.56231 7.02381 2.78532 4.98291 4.474 3.3582C6.16267 1.73348 8.25631 0.583353 10.5404 0.0256271C8.62519 2.1787 7.60934 4.97525 7.69986 7.84553C7.79037 10.7158 8.98044 13.4439 11.0276 15.474Z" fill="white"/>
</svg>
