<svg width="28" height="28" viewBox="0 0 28 28" fill="none" xmlns="http://www.w3.org/2000/svg">
<path d="M13.8235 21.4139C9.9222 21.4139 6.75959 18.181 6.75959 14.193C6.75959 10.2051 9.9222 6.97218 13.8235 6.97218C17.7247 6.97218 20.8873 10.2051 20.8873 14.193C20.8873 18.181 17.7247 21.4139 13.8235 21.4139ZM13.8235 20.101C17.0154 20.101 19.603 17.4559 19.603 14.193C19.603 10.9302 17.0154 8.28506 13.8235 8.28506C10.6315 8.28506 8.04393 10.9302 8.04393 14.193C8.04393 17.4559 10.6315 20.101 13.8235 20.101ZM14.4656 5.00285C14.4656 5.36539 14.1781 5.65929 13.8235 5.65929C13.4688 5.65929 13.1813 5.36539 13.1813 5.00285V1.0642C13.1813 0.701652 13.4688 0.407753 13.8235 0.407753C14.1781 0.407753 14.4656 0.701652 14.4656 1.0642V5.00285ZM14.4656 27.3219C14.4656 27.6844 14.1781 27.9783 13.8235 27.9783C13.4688 27.9783 13.1813 27.6844 13.1813 27.3219V23.3832C13.1813 23.0207 13.4688 22.7268 13.8235 22.7268C14.1781 22.7268 14.4656 23.0207 14.4656 23.3832V27.3219ZM20.6347 8.15877C20.3839 8.41513 19.9773 8.41513 19.7265 8.15877C19.4758 7.90242 19.4758 7.48678 19.7265 7.23042L22.3598 4.53868C22.6106 4.28232 23.0172 4.28232 23.2679 4.53868C23.5187 4.79503 23.5187 5.21067 23.2679 5.46703L20.6347 8.15877ZM5.28717 23.8474C5.03638 24.1038 4.62978 24.1038 4.379 23.8474C4.12822 23.5911 4.12822 23.1754 4.379 22.9191L7.01222 20.2273C7.26301 19.971 7.66961 19.971 7.92039 20.2273C8.17117 20.4837 8.17117 20.8993 7.92039 21.1557L5.28717 23.8474ZM22.8139 14.8495C22.4592 14.8495 22.1717 14.5556 22.1717 14.193C22.1717 13.8305 22.4592 13.5366 22.8139 13.5366H26.6669C27.0215 13.5366 27.309 13.8305 27.309 14.193C27.309 14.5556 27.0215 14.8495 26.6669 14.8495H22.8139ZM0.980061 14.8495C0.6254 14.8495 0.337891 14.5556 0.337891 14.193C0.337891 13.8305 0.6254 13.5366 0.980061 13.5366H4.83308C5.18774 13.5366 5.47525 13.8305 5.47525 14.193C5.47525 14.5556 5.18774 14.8495 4.83308 14.8495H0.980061ZM19.7265 21.1557C19.4758 20.8993 19.4758 20.4837 19.7265 20.2273C19.9773 19.971 20.3839 19.971 20.6347 20.2273L23.2679 22.9191C23.5187 23.1754 23.5187 23.5911 23.2679 23.8474C23.0172 24.1038 22.6106 24.1038 22.3598 23.8474L19.7265 21.1557ZM4.379 5.46703C4.12822 5.21067 4.12822 4.79503 4.379 4.53868C4.62978 4.28232 5.03638 4.28232 5.28717 4.53868L7.92039 7.23042C8.17117 7.48678 8.17117 7.90242 7.92039 8.15877C7.66961 8.41513 7.26301 8.41513 7.01222 8.15877L4.379 5.46703Z" fill="#31241E"/>
</svg>
